<defs>
<font horiz-adv-x="318" ><font-face
    font-family="ostrich-rounded"
    units-per-em="1000"
    panose-1="2 0 5 8 0 0 0 2 0 4"
    ascent="750"
    descent="-250"
    alphabetic="0" />
<missing-glyph horiz-adv-x="210" />
<glyph unicode=" " glyph-name="space" horiz-adv-x="210" />
<glyph unicode="!" glyph-name="exclam" horiz-adv-x="93" d="M26 674Q33 674 37 670T42 659V114Q42 98 26 98Q10 98 10 114V659Q10 665 14 669T26 674ZM26 43Q33 43 37 39T42 28V16Q42 0 26 0Q10 0 10 16V28Q10 34 14 38T26 43Z" />
<glyph unicode="&quot;" glyph-name="quotedbl" horiz-adv-x="162" d="M26 675Q42 675 42 659V602Q42 596 38 592T26 587Q20 587 16 591T11 602V659Q11 666 15 670T26 675ZM86 675Q102 675 102 659V602Q102 596 98 592T86 587Q79 587 75 591T70 602V659Q70 675 86 675Z" />
<glyph unicode="#" glyph-name="numbersign" horiz-adv-x="542" d="M473 447Q489 447 489 431Q489 425 485 421T473 416H362L331 258H442Q448 258 452 254T457 242Q457 236 453 231T442 226H325L283 13Q281 0 268 0H265Q250 3 252 19L293 226H152L110 13Q107 0
94 0H91Q85 2 81 7T79 19L120 226H-5Q-11 226 -15 231T-20 242Q-20 249 -16 253T-5 258H126L157 416H27Q20 416 16 420T11 431Q11 447 27 447H163L205 662Q207 668 212 672T223 674Q230 672 234 667T236 656L195 447H336L378 662Q380 668 385 672T397 674Q403 672
407 667T409 656L368 447H473ZM330 416H189L158 258H299L330 416Z" />
<glyph unicode="$" glyph-name="dollar" horiz-adv-x="320" d="M161 339Q174 333 192 323T225 297T252 257T263 198Q263 133 232 93Q203 55 154 49V16Q154 0 138 0Q122 0 122 16V49Q102 51 83 59T48 84T23 129T13 202Q13 218 29 218Q45 218 45 202Q45 166 52 143T70
107T94 87T122 80V323Q120 324 119 325T115 327Q102 334 85 344T51 370T24 411T13 471Q13 536 44 578Q73 619 122 624V659Q122 665 126 669T138 674Q145 674 149 670T154 659V625Q174 623 193 615T228 590T253 543T263 471Q263 455 247 455Q231 455 231 471Q231
507 224 530T206 566T182 585T154 593V342Q156 341 157 341T161 339ZM45 471Q45 445 52 427T70 396T95 374T122 359V593Q101 590 87 578T63 549T49 512T45 471ZM154 81Q191 86 211 116T231 198Q231 224 224 242T205 272T180 293T154 307V81Z" />
<glyph unicode="%" glyph-name="percent" horiz-adv-x="449" d="M164 450Q164 409 141 384T82 358Q46 358 23 383T0 450V536Q0 577 23 602T82 628Q118 628 141 603T164 536V450ZM31 450Q31 429 42 410T82 390Q110 390 121 409T132 450V536Q132 557 121 576T82
596Q54 596 43 577T31 536V450ZM356 673Q369 666 364 652L76 9Q71 0 61 0Q57 0 55 1Q49 4 47 10T47 22L335 665Q342 678 356 673ZM327 314Q363 314 385 289T408 223V137Q408 96 386 71T327 45Q290 45 268 70T245 137V223Q245 264 267 289T327 314ZM377 223Q377
233 375 243T366 263T351 277T327 283Q313 283 303 278T287 263T279 244T276 223V137Q276 116 287 96T327 76Q355 76 366 96T377 137V223Z" />
<glyph unicode="&amp;" glyph-name="ampersand" horiz-adv-x="429" d="M368 24Q371 18 370 12T362 2Q358 0 354 0Q346 0 341 8L303 72Q252 0 150 0Q82 0 39 49Q-1 95 -1 166Q-1 199 7 224T28 269T59 305T95 336Q104 344 112 351T130 367Q123 377 112 396T91 438T74
486T66 537Q66 604 83 635Q104 674 150 674Q202 674 222 628Q231 608 233 583T235 537Q235 501 228 472T211 421T189 385T170 362L302 137Q315 175 318 215T322 288Q322 295 326 299T337 304Q353 304 353 288Q353 250 348 200T322 105Q322 104 321 103L368 24ZM150
643Q140 643 131 640T114 625T102 593T97 537Q97 517 103 496T118 454T136 417T153 389Q157 394 162 401T172 416Q204 469 204 537Q204 570 200 590T189 623T172 639T150 643ZM150 31Q244 31 285 102L147 339Q139 332 132 326T116 312Q98 297 83 283T56 253T38
215T31 166Q31 141 38 117T59 73T96 43T150 31Z" />
<glyph unicode="&apos;" glyph-name="quotesingle" horiz-adv-x="81" d="M26 675Q42 675 42 659V602Q42 596 38 592T26 587Q20 587 16 591T11 602V659Q11 666 15 670T26 675Z" />
<glyph unicode="(" glyph-name="parenleft" horiz-adv-x="166" d="M105 4Q103 5 88 19T55 70Q9 165 9 337Q9 439 23 503T55 605T88 657T104 673Q107 675 111 676Q114 677 118 676T125 670Q130 661 127 654Q125 650 122 647Q116 642 109 634Q103 627 96 616T81
588Q67 556 54 496T40 337Q40 238 53 179T81 88Q96 56 108 42Q114 34 121 30Q125 28 127 24Q131 16 126 8Q123 3 119 2T112 1Q108 2 105 4Z" />
<glyph unicode=")" glyph-name="parenright" horiz-adv-x="158" d="M33 4Q29 2 25 1Q17 -1 12 8Q8 13 8 17T11 24Q13 28 17 30Q22 34 29 42Q34 49 41 60T57 88Q64 103 71 125T84 178T94 248T98 337Q98 436 85 496T57 588Q42 621 30 634T16 647H17Q14 650 12 654Q10
657 10 661T13 670Q16 675 20 676T27 676Q31 675 34 673Q35 672 50 658T83 606T114 504T129 337Q129 166 84 70Q66 33 51 19T33 4Z" />
<glyph unicode="*" glyph-name="asterisk" horiz-adv-x="295" d="M248 592Q250 586 248 580T239 572L157 541L219 471Q224 466 223 460T217 449Q213 445 207 445Q200 445 195 450L130 524L65 450Q60 445 53 445Q46 445 42 449Q37 454 37 460T41 471L103 541L21
572Q15 574 13 580T12 592Q14 598 20 601T32 601L114 571V658Q114 674 130 674Q146 674 146 658V571L228 601Q234 604 240 601T248 592Z" />
<glyph unicode="+" glyph-name="plus" horiz-adv-x="384" d="M314 351Q330 351 330 335Q330 319 314 319H184V189Q184 173 168 173Q152 173 152 189V319H22Q6 319 6 335Q6 351 22 351H152V481Q152 497 168 497Q184 497 184 481V351H314V351Z" />
<glyph unicode="," glyph-name="comma" horiz-adv-x="85" d="M27 -39Q11 -39 11 -23V28Q11 44 27 44Q43 44 43 28V-23Q43 -39 27 -39Z" />
<glyph unicode="-" glyph-name="hyphen" horiz-adv-x="299" d="M236 322H23Q7 322 7 338Q7 354 23 354H236Q242 354 246 350T251 338Q251 331 247 327T236 322Z" />
<glyph unicode="." glyph-name="period" horiz-adv-x="81" d="M30 43Q37 43 41 39T46 28V16Q46 0 30 0Q14 0 14 16V28Q14 34 18 38T30 43Z" />
<glyph unicode="/" glyph-name="slash" horiz-adv-x="384" d="M45 0Q41 0 39 1Q33 3 31 9T30 21L266 664Q271 678 287 673Q293 671 295 665T296 653L60 10Q55 0 45 0Z" />
<glyph unicode="0" glyph-name="zero" horiz-adv-x="356" d="M153 0Q129 0 104 7T57 34T23 88T10 179V496Q10 582 45 628Q82 674 153 674Q225 674 261 628Q297 583 297 496V179Q297 123 284 89T250 34T204 7T153 0ZM153 643Q96 643 70 608Q41 571 41 496V179Q41
103 70 66Q97 31 153 31Q208 31 237 66Q265 101 265 179V496Q265 573 237 608Q209 643 153 643Z" />
<glyph unicode="1" glyph-name="one" horiz-adv-x="194" d="M116 0Q100 0 100 16V615L33 533Q28 528 22 528T11 531Q6 536 5 542T9 554L104 669Q111 678 122 673Q132 670 132 659V16Q132 0 116 0Z" />
<glyph unicode="2" glyph-name="two" horiz-adv-x="320" d="M252 0H143H34Q18 0 18 16Q18 105 41 167Q55 205 77 237T132 299Q236 392 236 513Q236 574 211 608Q187 643 143 643Q96 643 74 612Q49 578 49 509Q49 502 45 498T34 493Q18 493 18 509Q18 589 48 631Q81
674 143 674Q204 674 237 626Q268 583 268 513Q268 378 153 275Q101 228 77 170T50 31H143H252Q258 31 263 27T268 16Q268 9 263 5T252 0Z" />
<glyph unicode="3" glyph-name="three" horiz-adv-x="303" d="M206 309Q224 292 241 260T259 174Q259 94 225 47T134 0Q70 0 39 48Q9 93 9 178Q9 194 25 194Q31 194 35 190T40 178Q40 103 65 66Q89 31 134 31Q177 31 202 70Q227 109 227 174Q227 219 213 246T184
287Q164 306 143 313T108 321H107H78Q72 321 68 325T63 336Q63 343 67 347T78 352H108Q126 352 147 361T185 388T215 433T227 499Q227 563 202 604Q178 643 134 643Q40 643 40 495Q40 488 36 484T25 479Q9 479 9 495Q9 580 39 625Q70 674 134 674Q194 674 229 620Q259
573 259 499Q259 447 242 414T206 364Q186 346 168 336Q189 325 206 309Z" />
<glyph unicode="4" glyph-name="four" horiz-adv-x="324" d="M261 0Q245 0 245 16V206H20Q11 206 6 213Q1 221 6 229L247 666Q253 677 265 674Q277 671 277 659V16Q277 9 272 5T261 0ZM46 237H245V597L46 237Z" />
<glyph unicode="5" glyph-name="five" horiz-adv-x="310" d="M230 374Q261 331 261 247V176Q261 141 253 110T231 55Q196 0 136 0Q74 0 41 47Q11 92 11 176Q11 192 27 192Q33 192 37 188T42 176Q42 102 67 65Q91 31 136 31Q178 31 204 72Q229 113 229 176V247Q229
322 204 356Q182 388 136 388Q93 388 67 350Q42 311 42 247V246Q42 239 38 235T27 230Q11 230 11 246V659Q11 665 15 669T27 674H245Q251 674 256 670T261 659Q261 652 256 648T245 643H42V369Q78 420 136 420Q198 420 230 374Z" />
<glyph unicode="6" glyph-name="six" horiz-adv-x="312" d="M133 0Q74 0 41 41T8 158V253V254V453Q8 525 21 569T53 636T94 666T133 674Q195 674 227 630Q258 590 258 520Q258 514 254 510T242 505Q236 505 231 509T226 520Q226 579 202 611Q178 643 133 643Q103
643 85 624T56 575T43 513T40 453V378Q74 429 133 429Q197 429 228 383Q258 338 258 253V180Q258 144 250 112T228 56Q195 0 133 0ZM40 254V158Q40 140 43 118T56 77T84 44T133 31Q177 31 201 73Q214 93 220 120T226 180V253Q226 329 202 365Q179 398 133 398Q89
398 65 358Q40 319 40 254Z" />
<glyph unicode="7" glyph-name="seven" horiz-adv-x="376" d="M58 0Q54 0 52 1Q46 4 44 10T44 22L303 643H19Q13 643 9 647T4 659Q4 665 8 669T19 674H326Q335 674 339 667Q344 660 341 652L73 10Q68 0 58 0Z" />
<glyph unicode="8" glyph-name="eight" horiz-adv-x="332" d="M216 337Q235 326 249 307Q281 265 281 176Q281 87 249 45Q216 0 146 0Q75 0 42 45Q10 89 10 176Q10 263 42 307Q56 327 76 337Q56 348 42 367Q10 411 10 498Q10 585 42 629Q75 674 146 674Q216 674
249 629Q281 587 281 498Q281 409 249 367Q235 349 216 337ZM67 386Q92 353 146 353Q200 353 224 386Q249 420 249 498Q249 576 224 610Q200 643 146 643Q92 643 67 610Q42 576 42 498Q42 420 67 386ZM224 64Q249 98 249 176Q249 254 224 289Q200 322 146 322Q92
322 67 289Q42 254 42 176Q42 98 67 64Q92 31 146 31Q200 31 224 64Z" />
<glyph unicode="9" glyph-name="nine" horiz-adv-x="308" d="M131 0Q69 0 37 46Q6 89 6 163Q6 179 22 179Q38 179 38 163Q38 98 62 64Q86 31 131 31Q160 31 178 48T206 93T220 154T224 220V296Q208 271 185 258T131 244Q69 244 37 291Q6 335 6 422V496Q6 577 40
625T131 674Q193 674 225 631Q256 591 256 518V422V421V220Q256 117 227 61Q195 0 131 0ZM131 643Q88 643 63 603Q38 562 38 496V422Q38 344 63 309Q85 276 131 276Q175 276 199 316Q211 335 217 362T224 421V518Q224 580 200 612Q177 643 131 643Z" />
<glyph unicode=":" glyph-name="colon" horiz-adv-x="113" d="M29 514Q35 514 39 510T44 499V454Q44 447 40 443T29 438Q13 438 13 454V499Q13 505 17 509T29 514ZM29 239Q35 239 39 235T44 223V179Q44 172 40 168T29 163Q13 163 13 179V223Q13 239 29 239Z" />
<glyph unicode=";" glyph-name="semicolon" horiz-adv-x="97" d="M28 514Q35 514 39 510T44 499V454Q44 438 28 438Q12 438 12 454V499Q12 505 16 509T28 514ZM28 239Q44 239 44 223V143Q44 127 28 127Q12 127 12 143V223Q12 239 28 239Z" />
<glyph unicode="&lt;" glyph-name="less" horiz-adv-x="833" />
<glyph unicode="=" glyph-name="equal" horiz-adv-x="312" d="M236 422H23Q7 422 7 438Q7 454 23 454H236Q242 454 246 450T251 438Q251 431 247 427T236 422ZM236 222H23Q7 222 7 238Q7 254 23 254H236Q242 254 246 250T251 238Q251 231 247 227T236 222Z" />
<glyph unicode="&gt;" glyph-name="greater" horiz-adv-x="833" />
<glyph unicode="?" glyph-name="question" horiz-adv-x="303" d="M233 624Q248 601 255 572T263 507Q263 471 255 445T234 399T209 366T184 344Q179 340 176 337T169 331Q149 308 138 253T127 119V116Q127 109 123 105T112 100Q96 100 96 116V119Q96 149 97 183T104
248T120 307T146 352Q152 360 164 368Q174 377 186 388T208 415T224 454T231 507Q231 537 225 562T207 606Q181 644 138 644Q92 644 70 610Q45 576 45 502Q45 496 41 492T29 487Q22 487 18 491T13 502Q13 583 44 628Q75 675 138 675Q199 675 233 624ZM111 44Q118
44 122 40T127 29V17Q127 1 111 1Q95 1 95 17V29Q95 35 99 39T111 44Z" />
<glyph unicode="@" glyph-name="at" horiz-adv-x="647" d="M387 165Q365 170 355 186T347 225Q331 214 313 212T271 209Q216 209 191 237Q165 268 172 332Q180 394 209 425Q240 459 296 459Q310 459 333 456T373 441Q376 439 381 434Q382 438 382 442Q384 448
389 452T400 454Q407 453 411 448T413 436Q413 436 411 422T406 387T398 341T389 292T382 250T378 223Q375 201 395 195Q399 194 402 194T411 193Q427 193 447 199T487 216T523 244T547 280Q557 306 561 336T564 396T553 455T531 504Q512 534 485 555T424 589T353
603T276 598Q240 590 204 572T135 523T79 448T46 346Q32 257 60 188T154 78Q196 52 247 41T351 33T454 52T546 98Q551 102 557 101T568 95Q576 82 565 72Q521 41 467 23T353 1H331Q277 1 228 13T138 51Q63 98 31 174T15 351Q33 465 108 541Q141 575 182 597T270
629Q313 638 355 635T435 618T504 580T558 521Q574 496 583 465T594 400T593 332T576 268Q565 241 543 220T493 184T437 164T387 165ZM271 241Q296 241 310 243T333 255Q344 266 352 291T368 359Q373 387 368 398T355 415Q347 421 332 424T296 427Q254 427 232
404Q210 379 204 328Q197 278 215 258Q229 241 271 241Z" />
<glyph unicode="A" glyph-name="A" horiz-adv-x="392" d="M342 19Q344 13 340 8T330 0H326Q314 0 311 12L266 206H89L44 12Q42 6 37 2T25 0Q18 2 15 7T13 19L162 662Q165 674 177 674Q190 674 193 662L342 19ZM259 237L177 589L96 237H259Z" />
<glyph unicode="B" glyph-name="B" horiz-adv-x="336" d="M202 337Q224 326 239 308Q274 264 274 176Q274 88 239 44Q202 0 125 0H30Q14 0 14 16V659Q14 665 18 669T30 674H125Q202 674 239 630Q274 586 274 498Q274 411 239 367Q231 357 222 350T202 337ZM46
353H125Q187 353 214 387Q242 421 242 498Q242 576 215 609T125 643H46V353ZM125 31Q188 31 215 64T242 176Q242 254 214 288Q187 322 125 322H46V31H125Z" />
<glyph unicode="C" glyph-name="C" horiz-adv-x="344" d="M153 0Q129 0 104 7T57 34T23 88T10 179V496Q10 551 23 586T57 640T103 667T153 674Q178 674 203 667T250 641T284 586T297 496Q297 480 281 480Q265 480 265 496Q265 571 236 608Q210 643 153 643Q98
643 70 608Q41 571 41 496V179Q41 104 70 66Q99 31 153 31Q209 31 236 66Q265 104 265 179Q265 195 281 195Q297 195 297 179Q297 123 284 89T250 34T204 7T153 0Z" />
<glyph unicode="D" glyph-name="D" horiz-adv-x="348" d="M127 0H28Q12 0 12 16V659Q12 665 16 669T28 674H127Q207 674 246 626Q283 582 283 492V182Q283 92 246 48Q207 0 127 0ZM43 31H127Q192 31 221 67T251 182V492Q251 570 222 606T127 643H43V31Z" />
<glyph unicode="E" glyph-name="E" horiz-adv-x="312" d="M42 322V31H237Q244 31 248 27T253 16Q253 0 237 0H27Q11 0 11 16V659Q11 665 15 669T27 674H237Q244 674 248 670T253 659Q253 643 237 643H42V353H237Q253 353 253 337Q253 331 249 327T237 322H42Z" />
<glyph unicode="F" glyph-name="F" horiz-adv-x="308" d="M241 353Q257 353 257 337Q257 331 253 327T241 322H46V16Q46 9 42 5T31 0Q15 0 15 16V659Q15 665 19 669T31 674H241Q248 674 252 670T257 659Q257 643 241 643H46V353H241V353Z" />
<glyph unicode="G" glyph-name="G" horiz-adv-x="352" d="M151 0Q80 0 43 46Q7 91 7 178V497Q7 584 43 629Q79 674 151 674Q223 674 259 629Q295 584 295 497Q295 481 279 481Q263 481 263 497Q263 546 252 575T225 619T189 638T151 643Q133 643 113 639T77 619T49
575T38 497V178Q38 103 67 66Q96 31 151 31Q206 31 235 66Q263 101 263 178V266H133Q117 266 117 282Q117 298 133 298H279Q295 298 295 282V178Q295 91 259 46Q222 0 151 0Z" />
<glyph unicode="H" glyph-name="H" horiz-adv-x="344" d="M264 674Q271 674 275 670T280 659V16Q280 0 264 0Q248 0 248 16V321H44V16Q44 0 28 0Q12 0 12 16V659Q12 665 16 669T28 674Q35 674 39 670T44 659V353H248V659Q248 665 252 669T264 674Z" />
<glyph unicode="I" glyph-name="I" horiz-adv-x="105" d="M34 0Q18 0 18 16V659Q18 665 22 669T34 674Q41 674 45 670T50 659V16Q50 0 34 0Z" />
<glyph unicode="J" glyph-name="J" horiz-adv-x="324" d="M134 0Q67 0 33 43Q0 83 0 165Q0 171 4 176T16 181Q22 181 26 176T31 165Q31 120 41 94T66 53T99 35T134 31Q184 31 210 62Q236 96 236 165V659Q236 665 240 669T252 674Q258 674 262 670T267 659V165Q267
83 234 43Q201 0 134 0Z" />
<glyph unicode="K" glyph-name="K" horiz-adv-x="360" d="M318 23Q321 18 319 12T312 2Q306 0 304 0Q295 0 290 8L107 335L39 233V16Q39 9 35 5T24 0Q8 0 8 16V659Q8 665 12 669T24 674Q30 674 34 670T39 659V291L291 667Q295 673 301 674T313 672Q318 668 319
662T317 650L127 364L318 23V23Z" />
<glyph unicode="L" glyph-name="L" horiz-adv-x="295" d="M247 0H21Q5 0 5 16V659Q5 665 9 669T21 674Q27 674 31 670T36 659V31H247Q254 31 258 27T263 16Q263 0 247 0Z" />
<glyph unicode="M" glyph-name="M" horiz-adv-x="473" d="M392 0Q376 0 376 16V546L223 11Q219 0 207 0Q196 0 192 11L39 546V16Q39 0 23 0Q7 0 7 16V659Q7 672 21 674Q34 676 38 663L207 73L377 663Q381 676 394 674Q408 672 408 659V16Q408 9 403 5T392 0Z" />
<glyph unicode="N" glyph-name="N" horiz-adv-x="360" d="M285 0Q274 0 271 10L42 577V16Q42 0 26 0Q10 0 10 16V659Q10 672 23 674Q36 676 41 664L269 97V659Q269 665 273 669T285 674Q292 674 296 670T301 659V16Q301 3 288 0H285Z" />
<glyph unicode="O" glyph-name="O" horiz-adv-x="348" d="M153 0Q129 0 104 7T57 34T23 88T10 179V496Q10 582 45 628Q82 674 153 674Q225 674 261 628Q297 583 297 496V179Q297 123 284 89T250 34T204 7T153 0ZM153 643Q96 643 70 608Q41 571 41 496V179Q41 103
70 66Q97 31 153 31Q208 31 237 66Q265 101 265 179V496Q265 573 237 608Q209 643 153 643Z" />
<glyph unicode="P" glyph-name="P" horiz-adv-x="340" d="M26 0Q10 0 10 16V659Q10 665 14 669T26 674H132Q213 674 251 630Q288 587 288 498Q288 409 251 366Q213 322 132 322H42V16Q42 0 26 0ZM42 353H132Q197 353 227 387Q256 420 256 498Q256 576 227 609T132
643H42V353Z" />
<glyph unicode="Q" glyph-name="Q" horiz-adv-x="348" d="M295 1Q299 -4 298 -10T292 -21Q289 -25 283 -25Q274 -25 270 -19L234 25Q202 0 150 0Q79 0 42 49Q7 96 7 182V499Q7 585 43 629Q79 674 150 674Q222 674 258 629Q293 587 293 499V182Q293 94 258 49Q258
48 258 48T257 47L295 1ZM150 31Q188 31 214 49L180 92Q175 97 176 103T182 114Q194 122 204 112L236 72Q262 110 262 182V499Q262 573 233 610Q206 643 150 643Q94 643 67 610Q38 573 38 499V182Q38 106 67 68Q95 31 150 31Z" />
<glyph unicode="R" glyph-name="R" horiz-adv-x="348" d="M247 307Q291 265 291 188V17Q291 1 275 1Q269 1 265 5T260 17V188Q260 250 227 283T134 317H44V17Q44 1 28 1Q22 1 18 5T13 17V660Q13 666 17 670T28 675H134Q214 675 252 632T290 497Q290 406 253 362Q237
343 212 332Q222 327 230 321T247 307ZM44 348H134Q199 348 229 383Q258 416 258 497Q258 575 229 609T134 644H44V348Z" />
<glyph unicode="S" glyph-name="S" horiz-adv-x="352" d="M158 1Q86 1 50 47Q14 92 14 179Q14 195 30 195Q36 195 40 191T45 179Q45 130 56 101T83 57T120 37T158 32Q212 32 241 69T271 174Q271 210 259 234T229 274T192 299T161 314L144 322Q129 328 107 339T65
371T29 422T14 496Q14 572 49 621Q88 675 158 675Q230 675 267 629Q303 584 303 496Q303 490 299 485T287 480Q280 480 276 485T271 496Q271 572 242 609Q215 644 158 644Q105 644 75 602Q45 561 45 496Q45 460 57 435T86 394T123 367T157 351L173 344Q186 338
208 327T251 297T287 248T303 174Q303 137 294 106T267 52Q228 1 158 1Z" />
<glyph unicode="T" glyph-name="T" horiz-adv-x="380" d="M324 675Q331 675 335 671T340 660Q340 644 324 644H179V17Q179 10 174 6T163 1Q147 1 147 17V644H1Q-5 644 -9 648T-14 660Q-14 666 -10 670T1 675H324V675Z" />
<glyph unicode="U" glyph-name="U" horiz-adv-x="348" d="M143 1Q120 1 97 7T54 32T22 83T9 166V660Q9 666 13 670T25 675Q31 675 35 671T40 660V166Q40 121 50 95T75 54T108 36T143 32Q159 32 177 36T210 54T235 94T245 166V660Q245 666 249 670T260 675Q267
675 271 671T276 660V166Q276 115 264 83T233 33T190 8T143 1Z" />
<glyph unicode="V" glyph-name="V" horiz-adv-x="401" d="M182 1Q170 1 167 13L6 656Q4 662 7 667T18 675Q24 677 29 674T37 663L182 82L328 663Q330 670 335 673T347 675Q353 673 356 668T358 656L198 13Q195 1 182 1Z" />
<glyph unicode="W" glyph-name="W" horiz-adv-x="651" d="M446 1Q433 1 431 13L304 586L178 13Q175 1 162 1Q150 1 147 13L5 656Q3 662 7 667T17 675Q33 677 36 663L162 90L289 663Q291 675 304 675Q317 675 320 663L446 90L572 663Q574 669 579 672T591 675Q598
673 601 668T603 656L461 13Q459 1 446 1Z" />
<glyph unicode="X" glyph-name="X" horiz-adv-x="392" d="M341 23Q344 17 342 11T333 2Q331 1 327 1Q316 1 312 10L175 301L38 10Q33 1 24 1Q19 1 17 2Q4 9 9 23L158 338L9 652Q7 658 9 664T17 673Q31 680 38 666L175 375L312 666Q315 672 321 674T333 673Q339
671 341 665T341 652L193 338L341 23Z" />
<glyph unicode="Y" glyph-name="Y" horiz-adv-x="417" d="M379 673Q385 670 387 664T385 652L211 334V16Q211 10 207 6T195 1Q188 1 184 5T179 16V334L5 652Q2 657 3 663T11 673Q17 676 23 674T33 667L195 371L358 667Q361 672 367 674T379 673Z" />
<glyph unicode="Z" glyph-name="Z" horiz-adv-x="409" d="M320 1H19Q9 1 5 8Q1 16 4 23L295 643H19Q3 643 3 659Q3 675 19 675H320Q329 675 333 668Q338 659 334 652L43 32H320Q336 32 336 16Q336 10 332 6T320 1Z" />
<glyph unicode="[" glyph-name="bracketleft" horiz-adv-x="833" />
<glyph unicode="\" glyph-name="backslash" horiz-adv-x="380" d="M283 0Q273 0 268 10L32 653Q30 659 32 665T41 673Q57 678 62 664L298 21Q300 15 298 9T289 1Q287 0 283 0Z" />
<glyph unicode="]" glyph-name="bracketright" horiz-adv-x="833" />
<glyph unicode="^" glyph-name="asciicircum" horiz-adv-x="833" />
<glyph unicode="_" glyph-name="underscore" horiz-adv-x="461" d="M398 -32H26Q10 -32 10 -16Q10 -10 14 -6T26 -1H398Q405 -1 409 -5T414 -16Q414 -32 398 -32Z" />
<glyph unicode="`" glyph-name="grave" horiz-adv-x="81" d="M26 675Q42 675 42 659V602Q42 596 38 592T26 587Q20 587 16 591T11 602V659Q11 666 15 670T26 675Z" />
<glyph unicode="a" glyph-name="a" horiz-adv-x="392" d="M342 19Q344 13 340 8T330 0H326Q314 0 311 12L266 206H89L44 12Q42 6 37 2T25 0Q18 2 15 7T13 19L162 662Q165 674 177 674Q190 674 193 662L342 19ZM259 237L177 589L96 237H259Z" />
<glyph unicode="b" glyph-name="b" horiz-adv-x="336" d="M202 337Q224 326 239 308Q274 264 274 176Q274 88 239 44Q202 0 125 0H30Q14 0 14 16V659Q14 665 18 669T30 674H125Q202 674 239 630Q274 586 274 498Q274 411 239 367Q231 357 222 350T202 337ZM46
353H125Q187 353 214 387Q242 421 242 498Q242 576 215 609T125 643H46V353ZM125 31Q188 31 215 64T242 176Q242 254 214 288Q187 322 125 322H46V31H125Z" />
<glyph unicode="c" glyph-name="c" horiz-adv-x="344" d="M153 0Q129 0 104 7T57 34T23 88T10 179V496Q10 551 23 586T57 640T103 667T153 674Q178 674 203 667T250 641T284 586T297 496Q297 480 281 480Q265 480 265 496Q265 571 236 608Q210 643 153 643Q98
643 70 608Q41 571 41 496V179Q41 104 70 66Q99 31 153 31Q209 31 236 66Q265 104 265 179Q265 195 281 195Q297 195 297 179Q297 123 284 89T250 34T204 7T153 0Z" />
<glyph unicode="d" glyph-name="d" horiz-adv-x="348" d="M127 0H28Q12 0 12 16V659Q12 665 16 669T28 674H127Q207 674 246 626Q283 582 283 492V182Q283 92 246 48Q207 0 127 0ZM43 31H127Q192 31 221 67T251 182V492Q251 570 222 606T127 643H43V31Z" />
<glyph unicode="e" glyph-name="e" horiz-adv-x="312" d="M42 322V31H237Q244 31 248 27T253 16Q253 0 237 0H27Q11 0 11 16V659Q11 665 15 669T27 674H237Q244 674 248 670T253 659Q253 643 237 643H42V353H237Q253 353 253 337Q253 331 249 327T237 322H42Z" />
<glyph unicode="f" glyph-name="f" horiz-adv-x="308" d="M241 353Q257 353 257 337Q257 331 253 327T241 322H46V16Q46 9 42 5T31 0Q15 0 15 16V659Q15 665 19 669T31 674H241Q248 674 252 670T257 659Q257 643 241 643H46V353H241V353Z" />
<glyph unicode="g" glyph-name="g" horiz-adv-x="352" d="M151 0Q80 0 43 46Q7 91 7 178V497Q7 584 43 629Q79 674 151 674Q223 674 259 629Q295 584 295 497Q295 481 279 481Q263 481 263 497Q263 546 252 575T225 619T189 638T151 643Q133 643 113 639T77 619T49
575T38 497V178Q38 103 67 66Q96 31 151 31Q206 31 235 66Q263 101 263 178V266H133Q117 266 117 282Q117 298 133 298H279Q295 298 295 282V178Q295 91 259 46Q222 0 151 0Z" />
<glyph unicode="h" glyph-name="h" horiz-adv-x="344" d="M264 674Q271 674 275 670T280 659V16Q280 0 264 0Q248 0 248 16V321H44V16Q44 0 28 0Q12 0 12 16V659Q12 665 16 669T28 674Q35 674 39 670T44 659V353H248V659Q248 665 252 669T264 674Z" />
<glyph unicode="i" glyph-name="i" horiz-adv-x="105" d="M34 0Q18 0 18 16V659Q18 665 22 669T34 674Q41 674 45 670T50 659V16Q50 0 34 0Z" />
<glyph unicode="j" glyph-name="j" horiz-adv-x="324" d="M134 0Q67 0 33 43Q0 83 0 165Q0 171 4 176T16 181Q22 181 26 176T31 165Q31 120 41 94T66 53T99 35T134 31Q184 31 210 62Q236 96 236 165V659Q236 665 240 669T252 674Q258 674 262 670T267 659V165Q267
83 234 43Q201 0 134 0Z" />
<glyph unicode="k" glyph-name="k" horiz-adv-x="360" d="M318 23Q321 18 319 12T312 2Q306 0 304 0Q295 0 290 8L107 335L39 233V16Q39 9 35 5T24 0Q8 0 8 16V659Q8 665 12 669T24 674Q30 674 34 670T39 659V291L291 667Q295 673 301 674T313 672Q318 668 319
662T317 650L127 364L318 23V23Z" />
<glyph unicode="l" glyph-name="l" horiz-adv-x="295" d="M247 0H21Q5 0 5 16V659Q5 665 9 669T21 674Q27 674 31 670T36 659V31H247Q254 31 258 27T263 16Q263 0 247 0Z" />
<glyph unicode="m" glyph-name="m" horiz-adv-x="473" d="M392 0Q376 0 376 16V546L223 11Q219 0 207 0Q196 0 192 11L39 546V16Q39 0 23 0Q7 0 7 16V659Q7 672 21 674Q34 676 38 663L207 73L377 663Q381 676 394 674Q408 672 408 659V16Q408 9 403 5T392 0Z" />
<glyph unicode="n" glyph-name="n" horiz-adv-x="360" d="M285 0Q274 0 271 10L42 577V16Q42 0 26 0Q10 0 10 16V659Q10 672 23 674Q36 676 41 664L269 97V659Q269 665 273 669T285 674Q292 674 296 670T301 659V16Q301 3 288 0H285Z" />
<glyph unicode="o" glyph-name="o" horiz-adv-x="348" d="M153 0Q129 0 104 7T57 34T23 88T10 179V496Q10 582 45 628Q82 674 153 674Q225 674 261 628Q297 583 297 496V179Q297 123 284 89T250 34T204 7T153 0ZM153 643Q96 643 70 608Q41 571 41 496V179Q41 103
70 66Q97 31 153 31Q208 31 237 66Q265 101 265 179V496Q265 573 237 608Q209 643 153 643Z" />
<glyph unicode="p" glyph-name="p" horiz-adv-x="340" d="M26 0Q10 0 10 16V659Q10 665 14 669T26 674H132Q213 674 251 630Q288 587 288 498Q288 409 251 366Q213 322 132 322H42V16Q42 0 26 0ZM42 353H132Q197 353 227 387Q256 420 256 498Q256 576 227 609T132
643H42V353Z" />
<glyph unicode="q" glyph-name="q" horiz-adv-x="348" d="M295 1Q299 -4 298 -10T292 -21Q289 -25 283 -25Q274 -25 270 -19L234 25Q202 0 150 0Q79 0 42 49Q7 96 7 182V499Q7 585 43 629Q79 674 150 674Q222 674 258 629Q293 587 293 499V182Q293 94 258 49Q258
48 258 48T257 47L295 1ZM150 31Q188 31 214 49L180 92Q175 97 176 103T182 114Q194 122 204 112L236 72Q262 110 262 182V499Q262 573 233 610Q206 643 150 643Q94 643 67 610Q38 573 38 499V182Q38 106 67 68Q95 31 150 31Z" />
<glyph unicode="r" glyph-name="r" horiz-adv-x="348" d="M247 307Q291 265 291 188V17Q291 1 275 1Q269 1 265 5T260 17V188Q260 250 227 283T134 317H44V17Q44 1 28 1Q22 1 18 5T13 17V660Q13 666 17 670T28 675H134Q214 675 252 632T290 497Q290 406 253 362Q237
343 212 332Q222 327 230 321T247 307ZM44 348H134Q199 348 229 383Q258 416 258 497Q258 575 229 609T134 644H44V348Z" />
<glyph unicode="s" glyph-name="s" horiz-adv-x="352" d="M158 1Q86 1 50 47Q14 92 14 179Q14 195 30 195Q36 195 40 191T45 179Q45 130 56 101T83 57T120 37T158 32Q212 32 241 69T271 174Q271 210 259 234T229 274T192 299T161 314L144 322Q129 328 107 339T65
371T29 422T14 496Q14 572 49 621Q88 675 158 675Q230 675 267 629Q303 584 303 496Q303 490 299 485T287 480Q280 480 276 485T271 496Q271 572 242 609Q215 644 158 644Q105 644 75 602Q45 561 45 496Q45 460 57 435T86 394T123 367T157 351L173 344Q186 338
208 327T251 297T287 248T303 174Q303 137 294 106T267 52Q228 1 158 1Z" />
<glyph unicode="t" glyph-name="t" horiz-adv-x="380" d="M324 675Q331 675 335 671T340 660Q340 644 324 644H179V17Q179 10 174 6T163 1Q147 1 147 17V644H1Q-5 644 -9 648T-14 660Q-14 666 -10 670T1 675H324V675Z" />
<glyph unicode="u" glyph-name="u" horiz-adv-x="348" d="M143 1Q120 1 97 7T54 32T22 83T9 166V660Q9 666 13 670T25 675Q31 675 35 671T40 660V166Q40 121 50 95T75 54T108 36T143 32Q159 32 177 36T210 54T235 94T245 166V660Q245 666 249 670T260 675Q267
675 271 671T276 660V166Q276 115 264 83T233 33T190 8T143 1Z" />
<glyph unicode="v" glyph-name="v" horiz-adv-x="401" d="M182 1Q170 1 167 13L6 656Q4 662 7 667T18 675Q24 677 29 674T37 663L182 82L328 663Q330 670 335 673T347 675Q353 673 356 668T358 656L198 13Q195 1 182 1Z" />
<glyph unicode="w" glyph-name="w" horiz-adv-x="651" d="M446 1Q433 1 431 13L304 586L178 13Q175 1 162 1Q150 1 147 13L5 656Q3 662 7 667T17 675Q33 677 36 663L162 90L289 663Q291 675 304 675Q317 675 320 663L446 90L572 663Q574 669 579 672T591 675Q598
673 601 668T603 656L461 13Q459 1 446 1Z" />
<glyph unicode="x" glyph-name="x" horiz-adv-x="392" d="M341 23Q344 17 342 11T333 2Q331 1 327 1Q316 1 312 10L175 301L38 10Q33 1 24 1Q19 1 17 2Q4 9 9 23L158 338L9 652Q7 658 9 664T17 673Q31 680 38 666L175 375L312 666Q315 672 321 674T333 673Q339
671 341 665T341 652L193 338L341 23Z" />
<glyph unicode="y" glyph-name="y" horiz-adv-x="417" d="M379 673Q385 670 387 664T385 652L211 334V16Q211 10 207 6T195 1Q188 1 184 5T179 16V334L5 652Q2 657 3 663T11 673Q17 676 23 674T33 667L195 371L358 667Q361 672 367 674T379 673Z" />
<glyph unicode="z" glyph-name="z" horiz-adv-x="409" d="M320 1H19Q9 1 5 8Q1 16 4 23L295 643H19Q3 643 3 659Q3 675 19 675H320Q329 675 333 668Q338 659 334 652L43 32H320Q336 32 336 16Q336 10 332 6T320 1Z" />
<glyph unicode="{" glyph-name="braceleft" horiz-adv-x="833" />
<glyph unicode="|" glyph-name="bar" horiz-adv-x="89" d="M24 0Q8 0 8 16V659Q8 665 12 669T24 674Q31 674 35 670T40 659V16Q40 0 24 0Z" />
<glyph unicode="}" glyph-name="braceright" horiz-adv-x="833" />
<glyph unicode="~" glyph-name="asciitilde" horiz-adv-x="833" />
<glyph unicode="&#xa0;" glyph-name="space" horiz-adv-x="210" />
<glyph unicode="&#xa9;" glyph-name="copyright" horiz-adv-x="833" />
<glyph unicode="&#xae;" glyph-name="registered" horiz-adv-x="833" />
</font>
</defs>
</svg>
